<svg width="546" height="565" viewBox="0 0 546 565" fill="none" xmlns="http://www.w3.org/2000/svg">
<circle cx="284.67" cy="313.311" r="250.19" stroke="#DDDDED" stroke-width="3" stroke-dasharray="8 8"/>
<circle cx="284.67" cy="313.31" r="189.437" stroke="#DDDDED" stroke-width="3" stroke-dasharray="8 8"/>
<circle cx="450.438" cy="95.4685" r="95.4685" fill="#3ADAD9"/>
<circle cx="473.003" cy="266.444" r="13.0184" fill="#25D68B"/>
<circle cx="398.364" cy="115.431" r="13.0184" fill="white" fill-opacity="0.29"/>
<circle cx="493.833" cy="66.8274" r="8.67896" fill="white" fill-opacity="0.29"/>
<circle cx="415.722" cy="465.192" r="86.7896" fill="#FD9B79"/>
<circle cx="362.78" cy="442.627" r="7.81106" fill="#F49159"/>
<circle cx="189.201" cy="38.1882" r="10.4147" fill="#EC844A"/>
<circle cx="453.041" cy="496.436" r="22.5653" fill="#F49159"/>
<circle cx="78.1106" cy="210.898" r="78.1106" fill="#F3C758"/>
<circle cx="109.355" cy="474.738" r="21.6974" fill="#4A81EC"/>
<circle cx="98.9402" cy="182.259" r="18.2258" fill="white" fill-opacity="0.25"/>
<circle cx="29.0744" cy="226.087" r="6.50922" fill="white" fill-opacity="0.25"/>
<g clip-path="url(#clip0_165_4093)">
<path d="M450.438 48.2363C448.536 48.2363 446.706 48.8083 445.146 49.8905C444.684 50.2104 444.568 50.8465 444.885 51.3114C445.203 51.7763 445.834 51.8937 446.295 51.5739C447.516 50.7273 448.949 50.2798 450.438 50.2798C454.473 50.2798 457.755 53.587 457.755 57.6522C457.755 61.7173 454.473 65.0247 450.438 65.0247C446.403 65.0247 443.12 61.7173 443.12 57.6522C443.12 56.453 443.397 55.3098 443.942 54.2545C444.2 53.7538 444.007 53.137 443.51 52.8766C443.013 52.6164 442.401 52.8107 442.142 53.3113C441.455 54.6419 441.092 56.143 441.092 57.6522C441.092 62.8442 445.285 67.0682 450.438 67.0682C455.591 67.0682 459.783 62.8442 459.783 57.6522C459.783 52.4603 455.591 48.2363 450.438 48.2363Z" fill="white"/>
<path d="M485.076 103.601L475.068 79.3728C474.91 78.9919 474.541 78.7437 474.132 78.7437H464.158C466.098 76.0997 467.713 73.466 468.974 70.8801C471.208 66.2973 472.341 61.8468 472.341 57.6519C472.341 45.4836 462.516 35.584 450.438 35.584C438.361 35.584 428.535 45.4836 428.535 57.6517C428.535 61.8466 429.668 66.2973 431.903 70.8799C433.164 73.4659 434.778 76.0997 436.718 78.7436H426.745C426.335 78.7436 425.966 78.9919 425.809 79.3727L418.989 95.8825C418.774 96.4035 419.018 97.0016 419.535 97.2183C419.663 97.2717 419.795 97.2971 419.924 97.2971C420.322 97.2971 420.699 97.0603 420.861 96.6677L421.834 94.3119H428.737L425.16 102.972H418.257L419.294 100.462C419.509 99.9406 419.264 99.3426 418.747 99.1259C418.23 98.9088 417.637 99.1556 417.422 99.6764L415.8 103.601C415.67 103.917 415.705 104.277 415.893 104.561C416.081 104.845 416.397 105.016 416.736 105.016H484.14C484.479 105.016 484.795 104.845 484.984 104.561C485.172 104.277 485.206 103.917 485.076 103.601ZM430.563 57.6517C430.563 46.6102 439.479 37.6273 450.438 37.6273C461.397 37.6273 470.313 46.6103 470.313 57.6517C470.313 62.2818 468.716 69.6806 461.33 79.1092C461.322 79.118 461.316 79.1274 461.309 79.1365C460.931 79.6175 460.539 80.1036 460.131 80.5952C456.072 85.4855 451.965 89.0565 450.438 90.3253C448.916 89.0609 444.828 85.5078 440.771 80.6268C440.353 80.1236 439.952 79.626 439.566 79.1338C439.56 79.1259 439.554 79.1178 439.547 79.11C432.161 69.6821 430.563 62.2836 430.563 57.6517ZM427.421 80.7871H434.325L431.807 86.8824H424.903L427.421 80.7871ZM433.351 102.972L439.69 87.6284L457.727 102.972H433.351ZM460.871 102.972L439.94 85.1669C439.693 84.9565 439.361 84.8777 439.047 84.9545C438.733 85.0311 438.474 85.2542 438.349 85.5548L431.154 102.972H427.357L431.194 93.6827C431.324 93.3674 431.29 93.0073 431.101 92.7232C430.913 92.4391 430.597 92.2684 430.258 92.2684H422.679L424.059 88.9257H432.483C432.893 88.9257 433.262 88.6774 433.419 88.2966L436.521 80.787H438.281C438.587 81.1707 438.897 81.5546 439.216 81.9384C444.449 88.2347 449.601 92.2771 449.818 92.4462C450 92.5887 450.219 92.6598 450.438 92.6598C450.657 92.6598 450.876 92.5886 451.059 92.4462C451.178 92.3533 452.789 91.0889 455.083 88.9258H466.566C467.126 88.9258 467.58 88.4684 467.58 87.9041C467.58 87.3398 467.126 86.8824 466.566 86.8824H457.173C458.579 85.4581 460.115 83.7975 461.66 81.9386C461.979 81.5548 462.29 81.171 462.595 80.7871H473.455L475.973 86.8824H470.622C470.062 86.8824 469.608 87.3398 469.608 87.9041C469.608 88.4684 470.062 88.9258 470.622 88.9258H476.817L478.198 92.2685H457.305C456.881 92.2685 456.503 92.5333 456.355 92.9328C456.207 93.3323 456.32 93.7823 456.64 94.0618L466.829 102.972H460.871V102.972ZM469.923 102.972L460.02 94.312H479.042L482.62 102.972H469.923Z" fill="white"/>
</g>
<path d="M435.265 135.902V124.622H436.977L441.233 132.478H440.721L444.961 124.622H446.641V135.902H444.785V127.662H445.137L441.553 134.19H440.353L436.737 127.646H437.121V135.902H435.265ZM451.827 136.062C451.262 136.062 450.755 135.956 450.307 135.742C449.87 135.518 449.523 135.22 449.267 134.846C449.022 134.473 448.899 134.052 448.899 133.582C448.899 133.006 449.049 132.553 449.347 132.222C449.646 131.881 450.131 131.636 450.803 131.486C451.475 131.337 452.377 131.262 453.507 131.262H454.307V132.414H453.523C453.022 132.414 452.601 132.436 452.259 132.478C451.918 132.51 451.641 132.569 451.427 132.654C451.225 132.729 451.075 132.836 450.979 132.974C450.894 133.113 450.851 133.284 450.851 133.486C450.851 133.838 450.974 134.126 451.219 134.35C451.465 134.574 451.806 134.686 452.243 134.686C452.595 134.686 452.905 134.606 453.171 134.446C453.449 134.276 453.667 134.046 453.827 133.758C453.987 133.47 454.067 133.14 454.067 132.766V130.926C454.067 130.393 453.95 130.009 453.715 129.774C453.481 129.54 453.086 129.422 452.531 129.422C452.094 129.422 451.646 129.492 451.187 129.63C450.729 129.758 450.265 129.961 449.795 130.238L449.219 128.878C449.497 128.686 449.822 128.521 450.195 128.382C450.579 128.233 450.979 128.121 451.395 128.046C451.822 127.961 452.222 127.918 452.595 127.918C453.363 127.918 453.993 128.036 454.483 128.27C454.985 128.505 455.358 128.862 455.603 129.342C455.849 129.812 455.971 130.42 455.971 131.166V135.902H454.099V134.238H454.227C454.153 134.612 454.003 134.937 453.779 135.214C453.566 135.481 453.294 135.689 452.963 135.838C452.633 135.988 452.254 136.062 451.827 136.062ZM458.321 138.782V128.078H460.273V129.726H460.113C460.273 129.182 460.599 128.745 461.089 128.414C461.591 128.084 462.172 127.918 462.833 127.918C463.516 127.918 464.113 128.084 464.625 128.414C465.148 128.745 465.553 129.214 465.841 129.822C466.129 130.42 466.273 131.14 466.273 131.982C466.273 132.814 466.129 133.54 465.841 134.158C465.553 134.766 465.153 135.236 464.641 135.566C464.129 135.897 463.527 136.062 462.833 136.062C462.183 136.062 461.612 135.902 461.121 135.582C460.631 135.252 460.3 134.825 460.129 134.302H460.321V138.782H458.321ZM462.273 134.542C462.871 134.542 463.351 134.329 463.713 133.902C464.076 133.465 464.257 132.825 464.257 131.982C464.257 131.129 464.076 130.494 463.713 130.078C463.351 129.652 462.871 129.438 462.273 129.438C461.676 129.438 461.196 129.652 460.833 130.078C460.471 130.494 460.289 131.129 460.289 131.982C460.289 132.825 460.471 133.465 460.833 133.902C461.196 134.329 461.676 134.542 462.273 134.542Z" fill="white"/>
<path d="M49.9706 242.812C48.7973 242.812 47.7893 242.578 46.9466 242.108C46.1146 241.628 45.4746 240.956 45.0266 240.092C44.5786 239.218 44.3546 238.188 44.3546 237.004C44.3546 235.82 44.5786 234.796 45.0266 233.932C45.4746 233.068 46.1146 232.402 46.9466 231.932C47.7893 231.452 48.7973 231.212 49.9706 231.212C50.728 231.212 51.4426 231.33 52.1146 231.564C52.7973 231.799 53.3573 232.135 53.7946 232.572L53.1226 234.204C52.6426 233.799 52.152 233.506 51.6506 233.324C51.1493 233.132 50.6106 233.036 50.0346 233.036C48.8933 233.036 48.024 233.383 47.4266 234.076C46.8293 234.759 46.5306 235.735 46.5306 237.004C46.5306 238.274 46.8293 239.255 47.4266 239.948C48.024 240.642 48.8933 240.988 50.0346 240.988C50.6106 240.988 51.1493 240.898 51.6506 240.716C52.152 240.524 52.6426 240.226 53.1226 239.82L53.7946 241.452C53.3573 241.879 52.7973 242.215 52.1146 242.46C51.4426 242.695 50.728 242.812 49.9706 242.812ZM58.0048 242.812C57.4394 242.812 56.9328 242.706 56.4848 242.492C56.0474 242.268 55.7008 241.97 55.4448 241.596C55.1994 241.223 55.0768 240.802 55.0768 240.332C55.0768 239.756 55.2261 239.303 55.5248 238.972C55.8234 238.631 56.3088 238.386 56.9808 238.236C57.6528 238.087 58.5541 238.012 59.6848 238.012H60.4848V239.164H59.7008C59.1994 239.164 58.7781 239.186 58.4368 239.228C58.0954 239.26 57.8181 239.319 57.6048 239.404C57.4021 239.479 57.2528 239.586 57.1568 239.724C57.0714 239.863 57.0288 240.034 57.0288 240.236C57.0288 240.588 57.1514 240.876 57.3968 241.1C57.6421 241.324 57.9834 241.436 58.4208 241.436C58.7728 241.436 59.0821 241.356 59.3488 241.196C59.6261 241.026 59.8448 240.796 60.0048 240.508C60.1648 240.22 60.2448 239.89 60.2448 239.516V237.676C60.2448 237.143 60.1274 236.759 59.8928 236.524C59.6581 236.29 59.2634 236.172 58.7088 236.172C58.2714 236.172 57.8234 236.242 57.3648 236.38C56.9061 236.508 56.4421 236.711 55.9728 236.988L55.3968 235.628C55.6741 235.436 55.9994 235.271 56.3728 235.132C56.7568 234.983 57.1568 234.871 57.5728 234.796C57.9994 234.711 58.3994 234.668 58.7728 234.668C59.5408 234.668 60.1701 234.786 60.6608 235.02C61.1621 235.255 61.5354 235.612 61.7808 236.092C62.0261 236.562 62.1488 237.17 62.1488 237.916V242.652H60.2768V240.988H60.4048C60.3301 241.362 60.1808 241.687 59.9568 241.964C59.7434 242.231 59.4714 242.439 59.1408 242.588C58.8101 242.738 58.4314 242.812 58.0048 242.812ZM67.2188 242.812C66.2908 242.812 65.6028 242.562 65.1548 242.06C64.7174 241.548 64.4988 240.802 64.4988 239.82V231.372H66.4988V239.724C66.4988 240.034 66.5414 240.3 66.6268 240.524C66.7228 240.738 66.8614 240.898 67.0428 241.004C67.2241 241.111 67.4481 241.164 67.7148 241.164C67.8321 241.164 67.9494 241.159 68.0668 241.148C68.1841 241.138 68.2961 241.116 68.4028 241.084L68.3708 242.668C68.1788 242.711 67.9868 242.743 67.7948 242.764C67.6134 242.796 67.4214 242.812 67.2188 242.812ZM73.706 242.812C72.8207 242.812 72.058 242.647 71.418 242.316C70.778 241.986 70.282 241.516 69.93 240.908C69.5887 240.3 69.418 239.58 69.418 238.748C69.418 237.938 69.5834 237.228 69.914 236.62C70.2554 236.012 70.7194 235.538 71.306 235.196C71.9034 234.844 72.5807 234.668 73.338 234.668C74.0847 234.668 74.7247 234.828 75.258 235.148C75.7914 235.468 76.202 235.922 76.49 236.508C76.7887 237.095 76.938 237.794 76.938 238.604V239.196H71.034V238.044H75.53L75.274 238.284C75.274 237.559 75.114 237.004 74.794 236.62C74.474 236.226 74.0154 236.028 73.418 236.028C72.97 236.028 72.586 236.135 72.266 236.348C71.9567 236.551 71.7167 236.844 71.546 237.228C71.386 237.602 71.306 238.05 71.306 238.572V238.684C71.306 239.271 71.3967 239.756 71.578 240.14C71.7594 240.524 72.0314 240.812 72.394 241.004C72.7567 241.196 73.2047 241.292 73.738 241.292C74.1754 241.292 74.6127 241.228 75.05 241.1C75.4874 240.962 75.8874 240.748 76.25 240.46L76.81 241.804C76.4367 242.114 75.9674 242.359 75.402 242.54C74.8367 242.722 74.2714 242.812 73.706 242.812ZM78.8419 242.652V234.828H80.7939V236.396H80.6179C80.8526 235.831 81.2152 235.404 81.7059 235.116C82.2072 234.818 82.7726 234.668 83.4019 234.668C84.0312 234.668 84.5486 234.786 84.9539 235.02C85.3592 235.255 85.6632 235.612 85.8659 236.092C86.0686 236.562 86.1699 237.159 86.1699 237.884V242.652H84.1699V237.98C84.1699 237.575 84.1166 237.244 84.0099 236.988C83.9139 236.732 83.7592 236.546 83.5459 236.428C83.3432 236.3 83.0819 236.236 82.7619 236.236C82.3779 236.236 82.0419 236.322 81.7539 236.492C81.4659 236.652 81.2419 236.887 81.0819 237.196C80.9219 237.495 80.8419 237.847 80.8419 238.252V242.652H78.8419ZM91.5293 242.812C90.8466 242.812 90.2439 242.647 89.7213 242.316C89.2093 241.986 88.8093 241.516 88.5213 240.908C88.2333 240.29 88.0893 239.564 88.0893 238.732C88.0893 237.89 88.2333 237.17 88.5213 236.572C88.8093 235.964 89.2093 235.495 89.7213 235.164C90.2439 234.834 90.8466 234.668 91.5293 234.668C92.1799 234.668 92.7453 234.828 93.2253 235.148C93.7159 235.468 94.0466 235.89 94.2173 236.412H94.0413V231.372H96.0413V242.652H94.0893V240.988H94.2333C94.0733 241.543 93.7479 241.986 93.2573 242.316C92.7666 242.647 92.1906 242.812 91.5293 242.812ZM92.0893 241.292C92.6866 241.292 93.1666 241.079 93.5293 240.652C93.8919 240.215 94.0733 239.575 94.0733 238.732C94.0733 237.879 93.8919 237.244 93.5293 236.828C93.1666 236.402 92.6866 236.188 92.0893 236.188C91.4919 236.188 91.0119 236.402 90.6493 236.828C90.2866 237.244 90.1053 237.879 90.1053 238.732C90.1053 239.575 90.2866 240.215 90.6493 240.652C91.0119 241.079 91.4919 241.292 92.0893 241.292ZM101.011 242.812C100.446 242.812 99.939 242.706 99.491 242.492C99.0537 242.268 98.707 241.97 98.451 241.596C98.2057 241.223 98.083 240.802 98.083 240.332C98.083 239.756 98.2324 239.303 98.531 238.972C98.8297 238.631 99.315 238.386 99.987 238.236C100.659 238.087 101.56 238.012 102.691 238.012H103.491V239.164H102.707C102.206 239.164 101.784 239.186 101.443 239.228C101.102 239.26 100.824 239.319 100.611 239.404C100.408 239.479 100.259 239.586 100.163 239.724C100.078 239.863 100.035 240.034 100.035 240.236C100.035 240.588 100.158 240.876 100.403 241.1C100.648 241.324 100.99 241.436 101.427 241.436C101.779 241.436 102.088 241.356 102.355 241.196C102.632 241.026 102.851 240.796 103.011 240.508C103.171 240.22 103.251 239.89 103.251 239.516V237.676C103.251 237.143 103.134 236.759 102.899 236.524C102.664 236.29 102.27 236.172 101.715 236.172C101.278 236.172 100.83 236.242 100.371 236.38C99.9124 236.508 99.4484 236.711 98.979 236.988L98.403 235.628C98.6804 235.436 99.0057 235.271 99.379 235.132C99.763 234.983 100.163 234.871 100.579 234.796C101.006 234.711 101.406 234.668 101.779 234.668C102.547 234.668 103.176 234.786 103.667 235.02C104.168 235.255 104.542 235.612 104.787 236.092C105.032 236.562 105.155 237.17 105.155 237.916V242.652H103.283V240.988H103.411C103.336 241.362 103.187 241.687 102.963 241.964C102.75 242.231 102.478 242.439 102.147 242.588C101.816 242.738 101.438 242.812 101.011 242.812ZM107.505 242.652V234.828H109.457V236.716H109.297C109.446 236.076 109.74 235.591 110.177 235.26C110.614 234.919 111.196 234.722 111.921 234.668L112.529 234.62L112.657 236.316L111.505 236.428C110.854 236.492 110.364 236.695 110.033 237.036C109.702 237.367 109.537 237.836 109.537 238.444V242.652H107.505Z" fill="white"/>
<path d="M386.585 503.889V494.321H382.713V492.609H392.505V494.321H388.633V503.889H386.585ZM393.803 494.385V492.433H396.043V494.385H393.803ZM393.931 503.889V496.065H395.931V503.889H393.931ZM398.361 503.889V496.065H400.313V497.633H400.137C400.275 497.27 400.467 496.961 400.713 496.705C400.958 496.449 401.251 496.251 401.593 496.113C401.934 495.974 402.313 495.905 402.729 495.905C403.358 495.905 403.875 496.054 404.281 496.353C404.686 496.651 404.969 497.11 405.129 497.729H404.905C405.118 497.163 405.47 496.721 405.961 496.401C406.451 496.07 407.017 495.905 407.657 495.905C408.254 495.905 408.745 496.022 409.129 496.257C409.523 496.491 409.817 496.849 410.009 497.329C410.201 497.798 410.297 498.395 410.297 499.121V503.889H408.297V499.201C408.297 498.603 408.195 498.166 407.993 497.889C407.801 497.611 407.47 497.473 407.001 497.473C406.659 497.473 406.361 497.558 406.105 497.729C405.849 497.889 405.651 498.123 405.513 498.433C405.385 498.742 405.321 499.115 405.321 499.553V503.889H403.321V499.201C403.321 498.603 403.219 498.166 403.017 497.889C402.825 497.611 402.499 497.473 402.041 497.473C401.689 497.473 401.385 497.558 401.129 497.729C400.883 497.889 400.691 498.123 400.553 498.433C400.425 498.742 400.361 499.115 400.361 499.553V503.889H398.361ZM416.536 504.049C415.651 504.049 414.888 503.883 414.248 503.553C413.608 503.222 413.112 502.753 412.76 502.145C412.419 501.537 412.248 500.817 412.248 499.985C412.248 499.174 412.413 498.465 412.744 497.857C413.085 497.249 413.549 496.774 414.136 496.433C414.733 496.081 415.411 495.905 416.168 495.905C416.915 495.905 417.555 496.065 418.088 496.385C418.621 496.705 419.032 497.158 419.32 497.745C419.619 498.331 419.768 499.03 419.768 499.841V500.433H413.864V499.281H418.36L418.104 499.521C418.104 498.795 417.944 498.241 417.624 497.857C417.304 497.462 416.845 497.265 416.248 497.265C415.8 497.265 415.416 497.371 415.096 497.585C414.787 497.787 414.547 498.081 414.376 498.465C414.216 498.838 414.136 499.286 414.136 499.809V499.921C414.136 500.507 414.227 500.993 414.408 501.377C414.589 501.761 414.861 502.049 415.224 502.241C415.587 502.433 416.035 502.529 416.568 502.529C417.005 502.529 417.443 502.465 417.88 502.337C418.317 502.198 418.717 501.985 419.08 501.697L419.64 503.041C419.267 503.35 418.797 503.595 418.232 503.777C417.667 503.958 417.101 504.049 416.536 504.049ZM424.392 504.049C423.464 504.049 422.776 503.798 422.328 503.297C421.891 502.785 421.672 502.038 421.672 501.057V492.609H423.672V500.961C423.672 501.27 423.715 501.537 423.8 501.761C423.896 501.974 424.035 502.134 424.216 502.241C424.397 502.347 424.621 502.401 424.888 502.401C425.005 502.401 425.123 502.395 425.24 502.385C425.357 502.374 425.469 502.353 425.576 502.321L425.544 503.905C425.352 503.947 425.16 503.979 424.968 504.001C424.787 504.033 424.595 504.049 424.392 504.049ZM426.973 494.385V492.433H429.213V494.385H426.973ZM427.101 503.889V496.065H429.101V503.889H427.101ZM431.499 503.889V496.065H433.451V497.633H433.275C433.51 497.067 433.873 496.641 434.363 496.353C434.865 496.054 435.43 495.905 436.059 495.905C436.689 495.905 437.206 496.022 437.611 496.257C438.017 496.491 438.321 496.849 438.523 497.329C438.726 497.798 438.827 498.395 438.827 499.121V503.889H436.827V499.217C436.827 498.811 436.774 498.481 436.667 498.225C436.571 497.969 436.417 497.782 436.203 497.665C436.001 497.537 435.739 497.473 435.419 497.473C435.035 497.473 434.699 497.558 434.411 497.729C434.123 497.889 433.899 498.123 433.739 498.433C433.579 498.731 433.499 499.083 433.499 499.489V503.889H431.499ZM445.035 504.049C444.149 504.049 443.387 503.883 442.747 503.553C442.107 503.222 441.611 502.753 441.259 502.145C440.917 501.537 440.747 500.817 440.747 499.985C440.747 499.174 440.912 498.465 441.243 497.857C441.584 497.249 442.048 496.774 442.635 496.433C443.232 496.081 443.909 495.905 444.667 495.905C445.413 495.905 446.053 496.065 446.587 496.385C447.12 496.705 447.531 497.158 447.819 497.745C448.117 498.331 448.267 499.03 448.267 499.841V500.433H442.363V499.281H446.859L446.603 499.521C446.603 498.795 446.443 498.241 446.123 497.857C445.803 497.462 445.344 497.265 444.747 497.265C444.299 497.265 443.915 497.371 443.595 497.585C443.285 497.787 443.045 498.081 442.875 498.465C442.715 498.838 442.635 499.286 442.635 499.809V499.921C442.635 500.507 442.725 500.993 442.907 501.377C443.088 501.761 443.36 502.049 443.723 502.241C444.085 502.433 444.533 502.529 445.067 502.529C445.504 502.529 445.941 502.465 446.379 502.337C446.816 502.198 447.216 501.985 447.579 501.697L448.139 503.041C447.765 503.35 447.296 503.595 446.731 503.777C446.165 503.958 445.6 504.049 445.035 504.049Z" fill="white"/>
<g clip-path="url(#clip1_165_4093)">
<path d="M67.2618 168.371C66.4058 168.371 65.7119 169.065 65.7119 169.921V173.021H68.8115V169.921C68.8115 169.065 68.1176 168.371 67.2618 168.371Z" fill="white"/>
<path d="M88.959 168.371C88.1031 168.371 87.4092 169.065 87.4092 169.921V173.021H90.5088V169.921C90.5089 169.065 89.815 168.371 88.959 168.371Z" fill="white"/>
<path d="M95.1584 173.02H90.509V179.219C90.509 180.075 89.8151 180.769 88.9591 180.769C88.1032 180.769 87.4093 180.075 87.4093 179.219V173.02H68.8116V179.219C68.8116 180.075 68.1177 180.769 67.2617 180.769C66.4057 180.769 65.7119 180.075 65.7119 179.219V173.02H61.0625C58.4947 173.02 56.4131 175.101 56.4131 177.669V207.115C56.4131 209.683 58.4947 211.765 61.0625 211.765H95.1584C97.7262 211.765 99.8079 209.683 99.8079 207.115V177.669C99.8079 175.101 97.7262 173.02 95.1584 173.02ZM96.7082 207.115C96.7082 207.971 96.0143 208.665 95.1583 208.665H61.0625C60.2066 208.665 59.5127 207.971 59.5127 207.115V186.968H96.7082V207.115Z" fill="white"/>
<path d="M68.8115 190.068H65.712C64.856 190.068 64.1621 190.762 64.1621 191.618C64.1621 192.474 64.856 193.168 65.712 193.168H68.8115C69.6675 193.168 70.3614 192.474 70.3614 191.618C70.3614 190.762 69.6675 190.068 68.8115 190.068Z" fill="white"/>
<path d="M79.6602 190.068H76.5606C75.7046 190.068 75.0107 190.762 75.0107 191.618C75.0107 192.474 75.7046 193.168 76.5606 193.168H79.6602C80.5161 193.168 81.21 192.474 81.21 191.618C81.21 190.762 80.5161 190.068 79.6602 190.068Z" fill="white"/>
<path d="M90.5091 190.068H87.4095C86.5535 190.068 85.8596 190.762 85.8596 191.618C85.8596 192.474 86.5535 193.168 87.4095 193.168H90.5091C91.365 193.168 92.0589 192.474 92.0589 191.618C92.0589 190.762 91.3649 190.068 90.5091 190.068Z" fill="white"/>
<path d="M68.8115 196.268H65.712C64.856 196.268 64.1621 196.961 64.1621 197.817C64.1621 198.673 64.856 199.367 65.712 199.367H68.8115C69.6675 199.367 70.3614 198.673 70.3614 197.817C70.3614 196.961 69.6675 196.268 68.8115 196.268Z" fill="white"/>
<path d="M79.6602 196.268H76.5606C75.7046 196.268 75.0107 196.961 75.0107 197.817C75.0107 198.673 75.7046 199.367 76.5606 199.367H79.6602C80.5161 199.367 81.21 198.673 81.21 197.817C81.21 196.961 80.5161 196.268 79.6602 196.268Z" fill="white"/>
<path d="M90.5091 196.268H87.4095C86.5535 196.268 85.8596 196.961 85.8596 197.817C85.8596 198.673 86.5535 199.367 87.4095 199.367H90.5091C91.365 199.367 92.0589 198.673 92.0589 197.817C92.0588 196.961 91.3649 196.268 90.5091 196.268Z" fill="white"/>
<path d="M68.8115 202.467H65.712C64.856 202.467 64.1621 203.161 64.1621 204.017C64.1621 204.873 64.856 205.566 65.712 205.566H68.8115C69.6675 205.566 70.3614 204.873 70.3614 204.017C70.3614 203.161 69.6675 202.467 68.8115 202.467Z" fill="white"/>
<path d="M79.6602 202.467H76.5606C75.7046 202.467 75.0107 203.161 75.0107 204.017C75.0107 204.873 75.7046 205.566 76.5606 205.566H79.6602C80.5161 205.566 81.21 204.873 81.21 204.017C81.21 203.161 80.5161 202.467 79.6602 202.467Z" fill="white"/>
<path d="M90.5091 202.467H87.4095C86.5535 202.467 85.8596 203.161 85.8596 204.017C85.8596 204.873 86.5535 205.566 87.4095 205.566H90.5091C91.365 205.566 92.0589 204.873 92.0589 204.017C92.0589 203.161 91.3649 202.467 90.5091 202.467Z" fill="white"/>
</g>
<g clip-path="url(#clip2_165_4093)">
<path d="M415.722 412.25C398.972 412.25 385.346 425.876 385.346 442.626C385.346 459.377 398.972 473.003 415.722 473.003C432.472 473.003 446.098 459.377 446.098 442.626C446.098 425.876 432.472 412.25 415.722 412.25ZM430.169 458.338C429.675 458.832 429.027 459.08 428.379 459.08C427.731 459.08 427.083 458.832 426.589 458.338L413.932 445.682C413.456 445.209 413.191 444.565 413.191 443.892V427.438C413.191 426.038 414.325 424.907 415.722 424.907C417.12 424.907 418.253 426.038 418.253 427.438V442.844L430.169 454.759C431.158 455.749 431.158 457.349 430.169 458.338V458.338Z" fill="white"/>
</g>
<defs>
<clipPath id="clip0_165_4093">
<rect width="69.4316" height="69.4316" fill="white" transform="translate(415.722 35.584)"/>
</clipPath>
<clipPath id="clip1_165_4093">
<rect width="43.3948" height="43.3948" fill="white" transform="translate(56.4131 168.371)"/>
</clipPath>
<clipPath id="clip2_165_4093">
<rect width="60.7527" height="60.7527" fill="white" transform="translate(385.346 412.25)"/>
</clipPath>
</defs>
</svg>
